name processed_emg_signals						
nRows=155						
nColumns=7						
 						
endheader						
time	LGLTMED	LRF	LADDLONG	LST	LTA	LGM
0.442	0.062105545	0.041841002	0.032305546	0.079388488	0.09903171	0.260913455
0.443	0.061619397	0.041818224	0.032594833	0.079000388	0.099272094	0.263636125
0.444	0.061139122	0.041795042	0.032895005	0.078607408	0.099528179	0.266322375
0.445	0.060664965	0.041771569	0.033206067	0.078209342	0.099799262	0.268970334
0.446	0.060197153	0.04174792	0.033528015	0.077805997	0.10008461	0.271578147
0.447	0.0597359	0.041724206	0.033860828	0.077397193	0.10038346	0.274143975
0.448	0.059281404	0.041700537	0.034204476	0.076982766	0.10069502	0.276665996
0.449	0.058833852	0.041677017	0.034558913	0.076562565	0.101018473	0.279142406
0.45	0.058393415	0.041653752	0.034924083	0.076136455	0.101352974	0.281571423
0.451	0.057960251	0.041630842	0.035299913	0.075704316	0.101697653	0.283951287
0.452	0.057534501	0.041608385	0.03568632	0.075266044	0.102051617	0.286280264
0.453	0.057116297	0.041586475	0.036083204	0.074821549	0.10241395	0.288556642
0.454	0.056705754	0.041565203	0.036490454	0.074370761	0.102783716	0.29077874
0.455	0.056302976	0.041544656	0.036907943	0.073913623	0.103159959	0.292944904
0.456	0.055908051	0.041524919	0.037335531	0.073450095	0.103541705	0.295053511
0.457	0.055521058	0.04150607	0.037773063	0.072980155	0.103927964	0.297102973
0.458	0.055142059	0.041488187	0.038220371	0.072503795	0.104317729	0.299091733
0.459	0.054771108	0.04147134	0.038677271	0.072021027	0.104709983	0.301018272
0.46	0.054408244	0.041455598	0.039143567	0.071531876	0.105103695	0.302881108
0.461	0.054053494	0.041441024	0.039619047	0.071036386	0.105497824	0.304678798
0.462	0.053706876	0.041427677	0.040103484	0.070534616	0.105891322	0.30640994
0.463	0.053368395	0.041415612	0.040596641	0.070026642	0.106283133	0.308073176
0.464	0.053038046	0.041404878	0.041098261	0.069512556	0.106672198	0.309667189
0.465	0.052715813	0.041395522	0.041608078	0.068992466	0.107057453	0.31119071
0.466	0.052401671	0.041387585	0.042125809	0.068466493	0.107437834	0.312642518
0.467	0.052095584	0.041381103	0.042651159	0.067934777	0.10781228	0.314021439
0.468	0.051797508	0.041376109	0.04318382	0.067397471	0.108179729	0.31532635
0.469	0.05150739	0.041372628	0.043723468	0.066854743	0.108539126	0.316556179
0.47	0.051225168	0.041370685	0.044269769	0.066306774	0.108889422	0.317709909
0.471	0.050950772	0.041370296	0.044822374	0.06575376	0.109229578	0.318786574
0.472	0.050684125	0.041371476	0.045380924	0.06519591	0.109558563	0.319785266
0.473	0.050425143	0.041374233	0.045945045	0.064633445	0.109875362	0.320705134
0.474	0.050173735	0.041378572	0.046514353	0.064066601	0.110178972	0.321545385
0.475	0.049929803	0.041384492	0.047088453	0.063495623	0.110468407	0.322305282
0.476	0.049693244	0.041391989	0.047666937	0.062920769	0.1107427	0.322984152
0.477	0.04946395	0.041401054	0.04824939	0.062342306	0.111000906	0.323581382
0.478	0.049241806	0.041411674	0.048835383	0.061760513	0.111242101	0.32409642
0.479	0.049026696	0.041423832	0.04942448	0.061175679	0.111465386	0.324528776
0.48	0.048818497	0.041437506	0.050016235	0.060588101	0.111669889	0.324878027
0.481	0.048617082	0.041452671	0.050610195	0.059998085	0.111854766	0.32514381
0.482	0.048422322	0.041469297	0.051205897	0.059405945	0.112019203	0.32532583
0.483	0.048234086	0.041487353	0.051802872	0.058812002	0.112162421	0.325423854
0.484	0.048052238	0.041506801	0.052400644	0.058216584	0.112283672	0.325437716
0.485	0.047876642	0.041527601	0.052998732	0.057620027	0.112382245	0.325367318
0.486	0.047707159	0.041549711	0.053596648	0.057022669	0.112457467	0.325212623
0.487	0.047543648	0.041573083	0.0541939	0.056424856	0.112508706	0.324973664
0.488	0.04738597	0.041597668	0.054789994	0.055826938	0.112535369	0.324650537
0.489	0.04723398	0.041623414	0.055384429	0.055229267	0.112536907	0.324243406
0.49	0.047087539	0.041650265	0.055976705	0.0546322	0.112512816	0.323752498
0.491	0.046946502	0.041678163	0.056566319	0.054036096	0.112462635	0.323178107
0.492	0.046810727	0.041707049	0.057152766	0.053441314	0.112385953	0.32252059
0.493	0.046680073	0.041736859	0.057735545	0.052848218	0.112282409	0.321780367
0.494	0.046554398	0.04176753	0.05831415	0.05225717	0.112151687	0.320957924
0.495	0.046433562	0.041798995	0.05888808	0.051668533	0.111993528	0.320053806
0.496	0.046317425	0.041831186	0.059456837	0.051082668	0.11180772	0.319068622
0.497	0.046205849	0.041864034	0.060019923	0.050499937	0.111594109	0.31800304
0.498	0.046098698	0.041897467	0.060576846	0.0499207	0.111352591	0.316857787
0.499	0.045995837	0.041931414	0.06112712	0.049345314	0.111083122	0.315633652
0.5	0.045897133	0.041965802	0.061670262	0.048774133	0.110785709	0.314331478
0.501	0.045802455	0.042000558	0.062205796	0.048207507	0.11046042	0.312952166
0.502	0.045711674	0.042035607	0.062733255	0.047645785	0.110107378	0.311496672
0.503	0.045624664	0.042070875	0.063252178	0.047089308	0.109726765	0.309966004
0.504	0.045541299	0.042106287	0.063762115	0.046538413	0.109318821	0.308361227
0.505	0.045461458	0.04214177	0.064262622	0.045993433	0.108883846	0.306683455
0.506	0.045385021	0.042177249	0.064753269	0.045454694	0.108422197	0.304933851
0.507	0.045311871	0.04221265	0.065233637	0.044922514	0.107934292	0.30311363
0.508	0.045241894	0.0422479	0.065703316	0.044397207	0.107420611	0.301224051
0.509	0.045174978	0.042282927	0.06616191	0.043879076	0.106881689	0.299266423
0.51	0.045111015	0.042317659	0.066609039	0.043368419	0.106318124	0.297242098
0.511	0.045049897	0.042352026	0.067044333	0.042865524	0.105730572	0.29515247
0.512	0.044991521	0.042385959	0.06746744	0.042370671	0.105119752	0.292998977
0.513	0.044935786	0.04241939	0.06787802	0.041884131	0.104486437	0.290783097
0.514	0.044882595	0.042452254	0.068275753	0.041406164	0.103831464	0.288506347
0.515	0.044831852	0.042484485	0.068660331	0.040937021	0.103155726	0.28617028
0.516	0.044783465	0.042516021	0.069031468	0.040476944	0.102460175	0.283776488
0.517	0.044737344	0.0425468	0.069388892	0.040026163	0.101745822	0.281326594
0.518	0.044693402	0.042576763	0.06973235	0.039584897	0.101013734	0.278822256
0.519	0.044651554	0.042605854	0.07006161	0.039153355	0.100265035	0.276265164
0.52	0.044611721	0.042634017	0.070376456	0.038731733	0.099500905	0.273657036
0.521	0.044573822	0.042661198	0.070676693	0.038320216	0.098722581	0.270999619
0.522	0.044537782	0.042687347	0.070962147	0.037918979	0.097931353	0.268294688
0.523	0.044503526	0.042712415	0.071232663	0.037528181	0.097128564	0.265544041
0.524	0.044470984	0.042736356	0.071488106	0.037147971	0.096315611	0.262749501
0.525	0.044440088	0.042759123	0.071728364	0.036778487	0.095493944	0.259912914
0.526	0.044410771	0.042780676	0.071953345	0.036419851	0.094665061	0.257036145
0.527	0.044382968	0.042800974	0.072162978	0.036072175	0.093830511	0.254121078
0.528	0.044356619	0.042819979	0.072357215	0.035735557	0.092991892	0.251169618
0.529	0.044331664	0.042837655	0.072536028	0.035410083	0.092150849	0.248183681
0.53	0.044308046	0.042853969	0.072699411	0.035095823	0.091309072	0.245165202
0.531	0.044285709	0.042868889	0.07284738	0.034792839	0.090468297	0.242116126
0.532	0.0442646	0.042882386	0.072979974	0.034501175	0.089630303	0.239038413
0.533	0.044244668	0.042894432	0.07309725	0.034220865	0.088796909	0.235934029
0.534	0.044225863	0.042905002	0.073199291	0.033951929	0.087969978	0.232804954
0.535	0.044208137	0.042914073	0.073286197	0.033694375	0.087151408	0.229653171
0.536	0.044191443	0.042921624	0.073358092	0.033448196	0.086343136	0.22648067
0.537	0.044175736	0.042927635	0.073415119	0.033213373	0.085547134	0.223289448
0.538	0.044160974	0.04293209	0.073457442	0.032989877	0.084765407	0.220081502
0.539	0.044147113	0.042934972	0.073485245	0.032777661	0.083999994	0.216858831
0.54	0.044134113	0.042936268	0.07349873	0.032576671	0.08325296	0.213623436
0.541	0.044121935	0.042935966	0.073498121	0.032386837	0.082526403	0.210377314
0.542	0.044110539	0.042934057	0.073483658	0.032208078	0.081822442	0.207122462
0.543	0.044099888	0.042930531	0.0734556	0.032040301	0.081143223	0.203860869
0.544	0.044089945	0.042925382	0.073414222	0.031883403	0.080490914	0.200594521
0.545	0.044080674	0.042918606	0.073359819	0.031737266	0.0798677	0.197325395
0.546	0.04407204	0.042910199	0.073292697	0.031601764	0.079275787	0.19405546
0.547	0.044064008	0.042900158	0.073213182	0.031476759	0.078717392	0.190786673
0.548	0.044056546	0.042888485	0.073121611	0.031362101	0.078194747	0.187520981
0.549	0.044049618	0.04287518	0.073018337	0.031257632	0.077710094	0.184260315
0.55	0.044043194	0.042860247	0.072903725	0.031163184	0.077265682	0.181006591
0.551	0.04403724	0.042843689	0.072778153	0.031078576	0.076863765	0.177761709
0.552	0.044031725	0.042825513	0.072642008	0.031003622	0.0765066	0.174527551
0.553	0.044026618	0.042805727	0.072495692	0.030938124	0.076196445	0.171305977
0.554	0.044021888	0.042784339	0.072339611	0.030881878	0.075935551	0.168098826
0.555	0.044017503	0.04276136	0.072174184	0.03083467	0.075726168	0.164907913
0.556	0.044013434	0.042736801	0.071999836	0.03079628	0.075570535	0.16173503
0.557	0.044009651	0.042710677	0.071817	0.030766479	0.075470878	0.15858194
0.558	0.044006123	0.042683002	0.071626114	0.030745031	0.075429413	0.155450378
0.559	0.044002822	0.042653792	0.071427622	0.030731697	0.075448334	0.15234205
0.56	0.043999718	0.042623066	0.071221971	0.030726228	0.075529818	0.14925863
0.561	0.043996781	0.042590843	0.071009612	0.030728372	0.075676017	0.14620176
0.562	0.043993984	0.042557144	0.070791	0.030737871	0.075889057	0.143173045
0.563	0.043991296	0.042521991	0.07056659	0.030754464	0.076171033	0.140174055
0.564	0.04398869	0.042485408	0.070336837	0.030777884	0.076524009	0.137206324
0.565	0.043986138	0.042447421	0.070102197	0.03080786	0.076950013	0.134271344
0.566	0.04398361	0.042408056	0.069863125	0.030844122	0.077451032	0.131370568
0.567	0.04398108	0.042367342	0.069620072	0.030886393	0.078029012	0.128505406
0.568	0.04397852	0.042325309	0.06937349	0.030934396	0.078685853	0.125677228
0.569	0.043975901	0.042281989	0.069123823	0.030987852	0.079423406	0.122887354
0.57	0.043973198	0.042237415	0.068871514	0.031046482	0.080243469	0.120137064
0.571	0.043970383	0.042191621	0.068616998	0.031110004	0.081147786	0.117427588
0.572	0.04396743	0.042144643	0.068360706	0.031178139	0.082138043	0.114760107
0.573	0.043964312	0.042096519	0.068103062	0.031250606	0.08321586	0.112135757
0.574	0.043961005	0.042047288	0.067844481	0.031327127	0.084382798	0.109555621
0.575	0.043957482	0.041996991	0.067585372	0.031407423	0.085640344	0.107020733
0.576	0.043953718	0.041945669	0.067326134	0.031491218	0.086989917	0.104532075
0.577	0.04394969	0.041893365	0.067067156	0.03157824	0.088432862	0.102090577
0.578	0.043945373	0.041840126	0.066808818	0.031668218	0.089970444	0.099697116
0.579	0.043940744	0.041785996	0.066551489	0.031760885	0.091603849	0.097352516
0.58	0.04393578	0.041731024	0.066295528	0.031855976	0.093334179	0.095057548
0.581	0.043930459	0.041675258	0.06604128	0.031953234	0.095162452	0.092812929
0.582	0.043924759	0.041618748	0.065789081	0.032052404	0.097089593	0.090619319
0.583	0.043918659	0.041561546	0.065539253	0.032153235	0.09911644	0.088477327
0.584	0.043912139	0.041503705	0.065292106	0.032255485	0.101243733	0.086387506
0.585	0.04390518	0.041445278	0.065047935	0.032358914	0.103472117	0.084350354
0.586	0.043897763	0.041386321	0.064807024	0.032463292	0.105802139	0.082366314
0.587	0.04388987	0.041326889	0.064569642	0.032568394	0.108234242	0.080435776
0.588	0.043881485	0.04126704	0.064336046	0.032674	0.110768767	0.078559074
0.589	0.043872591	0.041206833	0.064106478	0.032779901	0.113405952	0.076736489
0.59	0.043863174	0.041146325	0.063881165	0.032885893	0.116145925	0.074968247
0.591	0.043853218	0.041085578	0.063660321	0.032991781	0.118988705	0.073254522
0.592	0.043842713	0.041024652	0.063444146	0.033097379	0.121934203	0.071595435
0.593	0.043831646	0.040963609	0.063232826	0.033202508	0.124982218	0.069991054
0.594	0.043820006	0.040902513	0.063026533	0.033307	0.128132433	0.068441397
0.595	0.043807784	0.040841425	0.062825422	0.033410694	0.131384423	0.066946428
0.596	0.043794973	0.040780412	0.06262964	0.03351344	0.134737643	0.065506064
